<mxfile host="65bd71144e">
    <diagram id="NCeVSMS5AouI81oKsn57" name="Global">
        <mxGraphModel dx="1092" dy="634" grid="1" gridSize="10" guides="1" tooltips="1" connect="1" arrows="1" fold="1" page="1" pageScale="1" pageWidth="827" pageHeight="1169" math="0" shadow="0">
            <root>
                <mxCell id="0"/>
                <mxCell id="1" parent="0"/>
                <mxCell id="22" style="edgeStyle=none;html=1;dashed=1;" parent="1" source="2" target="18" edge="1">
                    <mxGeometry relative="1" as="geometry"/>
                </mxCell>
                <mxCell id="34" value="&amp;lt;&amp;lt;include&amp;gt;&amp;gt;" style="edgeLabel;html=1;align=center;verticalAlign=middle;resizable=0;points=[];" parent="22" vertex="1" connectable="0">
                    <mxGeometry x="-0.1198" y="2" relative="1" as="geometry">
                        <mxPoint as="offset"/>
                    </mxGeometry>
                </mxCell>
                <mxCell id="64" style="edgeStyle=none;html=1;endArrow=none;endFill=0;" parent="1" source="2" target="3" edge="1">
                    <mxGeometry relative="1" as="geometry"/>
                </mxCell>
                <mxCell id="72" style="edgeStyle=none;html=1;endArrow=none;endFill=0;" parent="1" source="3" target="70" edge="1">
                    <mxGeometry relative="1" as="geometry"/>
                </mxCell>
                <mxCell id="l9Y1ouvPxsmZJ-pajdTK-77" style="edgeStyle=none;shape=connector;rounded=1;html=1;labelBackgroundColor=default;fontFamily=Helvetica;fontSize=11;fontColor=default;endArrow=none;endFill=0;strokeColor=default;" parent="1" source="3" target="l9Y1ouvPxsmZJ-pajdTK-74" edge="1">
                    <mxGeometry relative="1" as="geometry"/>
                </mxCell>
                <mxCell id="l9Y1ouvPxsmZJ-pajdTK-79" style="edgeStyle=none;shape=connector;rounded=1;html=1;labelBackgroundColor=default;fontFamily=Helvetica;fontSize=11;fontColor=default;endArrow=none;endFill=0;strokeColor=default;" parent="1" source="3" target="l9Y1ouvPxsmZJ-pajdTK-73" edge="1">
                    <mxGeometry relative="1" as="geometry"/>
                </mxCell>
                <mxCell id="3" value="User" style="shape=umlActor;verticalLabelPosition=bottom;verticalAlign=top;html=1;" parent="1" vertex="1">
                    <mxGeometry x="30" y="330" width="30" height="60" as="geometry"/>
                </mxCell>
                <mxCell id="28" style="edgeStyle=none;html=1;dashed=1;" parent="1" source="9" target="18" edge="1">
                    <mxGeometry relative="1" as="geometry"/>
                </mxCell>
                <mxCell id="41" value="&amp;lt;&amp;lt;include&amp;gt;&amp;gt;" style="edgeLabel;html=1;align=center;verticalAlign=middle;resizable=0;points=[];" parent="28" vertex="1" connectable="0">
                    <mxGeometry x="-0.3382" y="1" relative="1" as="geometry">
                        <mxPoint as="offset"/>
                    </mxGeometry>
                </mxCell>
                <mxCell id="55" style="edgeStyle=none;html=1;endArrow=none;endFill=0;" parent="1" source="9" target="3" edge="1">
                    <mxGeometry relative="1" as="geometry"/>
                </mxCell>
                <mxCell id="18" value="Authentification" style="ellipse;whiteSpace=wrap;html=1;fillColor=#d5e8d4;strokeColor=#82b366;" parent="1" vertex="1">
                    <mxGeometry x="640" y="330" width="140" height="70" as="geometry"/>
                </mxCell>
                <mxCell id="73" style="edgeStyle=none;html=1;endArrow=classic;endFill=1;dashed=1;" parent="1" source="70" target="18" edge="1">
                    <mxGeometry relative="1" as="geometry"/>
                </mxCell>
                <mxCell id="soSqQ3qYFd5O0Vi8U5W4-73" value="&lt;span style=&quot;font-family: &amp;#34;helvetica&amp;#34;&quot;&gt;&amp;lt;&amp;lt;include&amp;gt;&amp;gt;&lt;/span&gt;" style="edgeLabel;html=1;align=center;verticalAlign=middle;resizable=0;points=[];" parent="73" vertex="1" connectable="0">
                    <mxGeometry x="-0.3023" y="1" relative="1" as="geometry">
                        <mxPoint as="offset"/>
                    </mxGeometry>
                </mxCell>
                <mxCell id="70" value="Objective Managment" style="ellipse;whiteSpace=wrap;html=1;fillColor=#dae8fc;strokeColor=#6c8ebf;" parent="1" vertex="1">
                    <mxGeometry x="237" y="230" width="140" height="70" as="geometry"/>
                </mxCell>
                <mxCell id="l9Y1ouvPxsmZJ-pajdTK-73" value="KeyResult Managment" style="ellipse;whiteSpace=wrap;html=1;fillColor=#dae8fc;strokeColor=#6c8ebf;" parent="1" vertex="1">
                    <mxGeometry x="237" y="310" width="140" height="70" as="geometry"/>
                </mxCell>
                <mxCell id="l9Y1ouvPxsmZJ-pajdTK-74" value="Session Managment" style="ellipse;whiteSpace=wrap;html=1;fillColor=#dae8fc;strokeColor=#6c8ebf;" parent="1" vertex="1">
                    <mxGeometry x="237" y="150" width="140" height="70" as="geometry"/>
                </mxCell>
                <mxCell id="l9Y1ouvPxsmZJ-pajdTK-75" style="edgeStyle=none;html=1;endArrow=classic;endFill=1;dashed=1;" parent="1" source="l9Y1ouvPxsmZJ-pajdTK-74" target="18" edge="1">
                    <mxGeometry relative="1" as="geometry">
                        <mxPoint x="384.07533093808865" y="325.01124342359526" as="sourcePoint"/>
                        <mxPoint x="652.9110643081583" y="365.0115728498499" as="targetPoint"/>
                    </mxGeometry>
                </mxCell>
                <mxCell id="l9Y1ouvPxsmZJ-pajdTK-76" value="&lt;span style=&quot;font-family: &amp;#34;helvetica&amp;#34;&quot;&gt;&amp;lt;&amp;lt;include&amp;gt;&amp;gt;&lt;/span&gt;" style="edgeLabel;html=1;align=center;verticalAlign=middle;resizable=0;points=[];" parent="l9Y1ouvPxsmZJ-pajdTK-75" vertex="1" connectable="0">
                    <mxGeometry x="-0.3023" y="1" relative="1" as="geometry">
                        <mxPoint as="offset"/>
                    </mxGeometry>
                </mxCell>
                <mxCell id="l9Y1ouvPxsmZJ-pajdTK-81" style="edgeStyle=none;html=1;endArrow=classic;endFill=1;dashed=1;" parent="1" source="l9Y1ouvPxsmZJ-pajdTK-73" target="18" edge="1">
                    <mxGeometry relative="1" as="geometry">
                        <mxPoint x="379.75687007293095" y="290.5046384886065" as="sourcePoint"/>
                        <mxPoint x="657.2970207103695" y="359.44094806708915" as="targetPoint"/>
                    </mxGeometry>
                </mxCell>
                <mxCell id="l9Y1ouvPxsmZJ-pajdTK-82" value="&lt;span style=&quot;font-family: &amp;#34;helvetica&amp;#34;&quot;&gt;&amp;lt;&amp;lt;include&amp;gt;&amp;gt;&lt;/span&gt;" style="edgeLabel;html=1;align=center;verticalAlign=middle;resizable=0;points=[];" parent="l9Y1ouvPxsmZJ-pajdTK-81" vertex="1" connectable="0">
                    <mxGeometry x="-0.3023" y="1" relative="1" as="geometry">
                        <mxPoint as="offset"/>
                    </mxGeometry>
                </mxCell>
                <mxCell id="46" value="" style="shape=folder;fontStyle=1;spacingTop=10;tabWidth=103;tabHeight=20;tabPosition=left;html=1;" parent="1" vertex="1">
                    <mxGeometry x="820" y="140" width="670" height="590" as="geometry"/>
                </mxCell>
                <mxCell id="9" value="Comments management" style="ellipse;whiteSpace=wrap;html=1;fillColor=#dae8fc;strokeColor=#6c8ebf;" parent="1" vertex="1">
                    <mxGeometry x="237" y="390" width="140" height="70" as="geometry"/>
                </mxCell>
                <mxCell id="2" value="chart management&amp;nbsp;" style="ellipse;whiteSpace=wrap;html=1;fillColor=#dae8fc;strokeColor=#6c8ebf;" parent="1" vertex="1">
                    <mxGeometry x="237" y="470" width="140" height="70" as="geometry"/>
                </mxCell>
            </root>
        </mxGraphModel>
    </diagram>
    <diagram id="543bBo_Rgu9XNgKoUtUS" name="OKR managment">
        <mxGraphModel dx="1092" dy="634" grid="0" gridSize="10" guides="1" tooltips="1" connect="1" arrows="1" fold="1" page="1" pageScale="1" pageWidth="827" pageHeight="1169" math="0" shadow="0">
            <root>
                <mxCell id="SgHygf1obzQeehWRGn5f-0"/>
                <mxCell id="SgHygf1obzQeehWRGn5f-1" parent="SgHygf1obzQeehWRGn5f-0"/>
                <mxCell id="tBhYiV4dybHf3C0FJZ62-1" value="Objective management" style="ellipse;whiteSpace=wrap;html=1;fillColor=#dae8fc;strokeColor=#6c8ebf;" parent="SgHygf1obzQeehWRGn5f-1" vertex="1">
                    <mxGeometry x="485" y="255" width="140" height="70" as="geometry"/>
                </mxCell>
                <mxCell id="tBhYiV4dybHf3C0FJZ62-2" value="KeyResult managment" style="ellipse;whiteSpace=wrap;html=1;fillColor=#dae8fc;strokeColor=#6c8ebf;" parent="SgHygf1obzQeehWRGn5f-1" vertex="1">
                    <mxGeometry x="485" y="330" width="140" height="70" as="geometry"/>
                </mxCell>
                <mxCell id="tBhYiV4dybHf3C0FJZ62-3" value="Task Management" style="ellipse;whiteSpace=wrap;html=1;fillColor=#dae8fc;strokeColor=#6c8ebf;" parent="SgHygf1obzQeehWRGn5f-1" vertex="1">
                    <mxGeometry x="485" y="405" width="140" height="70" as="geometry"/>
                </mxCell>
                <mxCell id="tBhYiV4dybHf3C0FJZ62-4" value="Metrics &amp;amp; parameters Management" style="ellipse;whiteSpace=wrap;html=1;fillColor=#dae8fc;strokeColor=#6c8ebf;" parent="SgHygf1obzQeehWRGn5f-1" vertex="1">
                    <mxGeometry x="485" y="565" width="140" height="70" as="geometry"/>
                </mxCell>
                <mxCell id="tBhYiV4dybHf3C0FJZ62-5" value="&amp;nbsp;sessions management&amp;nbsp;" style="ellipse;whiteSpace=wrap;html=1;fillColor=#dae8fc;strokeColor=#6c8ebf;" parent="SgHygf1obzQeehWRGn5f-1" vertex="1">
                    <mxGeometry x="485" y="483" width="140" height="70" as="geometry"/>
                </mxCell>
                <mxCell id="tBhYiV4dybHf3C0FJZ62-17" value="User" style="shape=umlActor;verticalLabelPosition=bottom;verticalAlign=top;html=1;" parent="SgHygf1obzQeehWRGn5f-1" vertex="1">
                    <mxGeometry x="85" y="433" width="30" height="60" as="geometry"/>
                </mxCell>
                <mxCell id="tBhYiV4dybHf3C0FJZ62-18" value="Owner" style="shape=umlActor;verticalLabelPosition=bottom;verticalAlign=top;html=1;" parent="SgHygf1obzQeehWRGn5f-1" vertex="1">
                    <mxGeometry x="102" y="585" width="30" height="60" as="geometry"/>
                </mxCell>
                <mxCell id="_tPq-rbUrodUrHNc-6ks-8" style="edgeStyle=none;html=1;endArrow=none;endFill=0;" parent="SgHygf1obzQeehWRGn5f-1" source="tBhYiV4dybHf3C0FJZ62-19" target="tBhYiV4dybHf3C0FJZ62-8" edge="1">
                    <mxGeometry relative="1" as="geometry"/>
                </mxCell>
                <mxCell id="tBhYiV4dybHf3C0FJZ62-19" value="Approver" style="shape=umlActor;verticalLabelPosition=bottom;verticalAlign=top;html=1;" parent="SgHygf1obzQeehWRGn5f-1" vertex="1">
                    <mxGeometry x="80" y="310" width="30" height="60" as="geometry"/>
                </mxCell>
                <mxCell id="tBhYiV4dybHf3C0FJZ62-33" style="edgeStyle=none;html=1;endArrow=block;endFill=0;" parent="SgHygf1obzQeehWRGn5f-1" source="tBhYiV4dybHf3C0FJZ62-8" target="tBhYiV4dybHf3C0FJZ62-1" edge="1">
                    <mxGeometry relative="1" as="geometry"/>
                </mxCell>
                <mxCell id="tBhYiV4dybHf3C0FJZ62-8" value="approve OKR" style="ellipse;whiteSpace=wrap;html=1;fillColor=#fff2cc;strokeColor=#d6b656;" parent="SgHygf1obzQeehWRGn5f-1" vertex="1">
                    <mxGeometry x="315" y="185" width="120" height="40" as="geometry"/>
                </mxCell>
                <mxCell id="tBhYiV4dybHf3C0FJZ62-31" style="edgeStyle=none;html=1;endArrow=block;endFill=0;" parent="SgHygf1obzQeehWRGn5f-1" source="tBhYiV4dybHf3C0FJZ62-10" target="tBhYiV4dybHf3C0FJZ62-1" edge="1">
                    <mxGeometry relative="1" as="geometry"/>
                </mxCell>
                <mxCell id="tBhYiV4dybHf3C0FJZ62-10" value="Add Child Objective" style="ellipse;whiteSpace=wrap;html=1;fillColor=#fff2cc;strokeColor=#d6b656;" parent="SgHygf1obzQeehWRGn5f-1" vertex="1">
                    <mxGeometry x="310" y="135" width="125" height="40" as="geometry"/>
                </mxCell>
                <mxCell id="tBhYiV4dybHf3C0FJZ62-30" style="html=1;endArrow=block;endFill=0;" parent="SgHygf1obzQeehWRGn5f-1" source="tBhYiV4dybHf3C0FJZ62-12" target="tBhYiV4dybHf3C0FJZ62-1" edge="1">
                    <mxGeometry relative="1" as="geometry"/>
                </mxCell>
                <mxCell id="tBhYiV4dybHf3C0FJZ62-12" value="Add KeyResult" style="ellipse;whiteSpace=wrap;html=1;fillColor=#fff2cc;strokeColor=#d6b656;" parent="SgHygf1obzQeehWRGn5f-1" vertex="1">
                    <mxGeometry x="315" y="85" width="120" height="40" as="geometry"/>
                </mxCell>
                <mxCell id="_tPq-rbUrodUrHNc-6ks-0" style="edgeStyle=none;html=1;dashed=1;" parent="SgHygf1obzQeehWRGn5f-1" source="tBhYiV4dybHf3C0FJZ62-1" target="tBhYiV4dybHf3C0FJZ62-6" edge="1">
                    <mxGeometry relative="1" as="geometry">
                        <mxPoint x="354.25248396086886" y="170.82248419270013" as="sourcePoint"/>
                        <mxPoint x="662.7205302095315" y="339.189867608181" as="targetPoint"/>
                    </mxGeometry>
                </mxCell>
                <mxCell id="_tPq-rbUrodUrHNc-6ks-1" value="&amp;lt;&amp;lt;include&amp;gt;&amp;gt;" style="edgeLabel;html=1;align=center;verticalAlign=middle;resizable=0;points=[];" parent="_tPq-rbUrodUrHNc-6ks-0" vertex="1" connectable="0">
                    <mxGeometry x="-0.1198" y="2" relative="1" as="geometry">
                        <mxPoint as="offset"/>
                    </mxGeometry>
                </mxCell>
                <mxCell id="_tPq-rbUrodUrHNc-6ks-3" style="edgeStyle=none;html=1;dashed=1;" parent="SgHygf1obzQeehWRGn5f-1" source="tBhYiV4dybHf3C0FJZ62-2" target="tBhYiV4dybHf3C0FJZ62-6" edge="1">
                    <mxGeometry relative="1" as="geometry">
                        <mxPoint x="653.9976297701453" y="585.0024187681352" as="sourcePoint"/>
                        <mxPoint x="827.131262776285" y="695.1065918039815" as="targetPoint"/>
                    </mxGeometry>
                </mxCell>
                <mxCell id="_tPq-rbUrodUrHNc-6ks-4" value="&amp;lt;&amp;lt;include&amp;gt;&amp;gt;" style="edgeLabel;html=1;align=center;verticalAlign=middle;resizable=0;points=[];" parent="_tPq-rbUrodUrHNc-6ks-3" vertex="1" connectable="0">
                    <mxGeometry x="-0.1198" y="2" relative="1" as="geometry">
                        <mxPoint as="offset"/>
                    </mxGeometry>
                </mxCell>
                <mxCell id="_tPq-rbUrodUrHNc-6ks-6" style="edgeStyle=none;html=1;dashed=1;" parent="SgHygf1obzQeehWRGn5f-1" source="tBhYiV4dybHf3C0FJZ62-3" target="tBhYiV4dybHf3C0FJZ62-6" edge="1">
                    <mxGeometry relative="1" as="geometry">
                        <mxPoint x="719.995063707364" y="788.8957951366854" as="sourcePoint"/>
                        <mxPoint x="896.2613759559605" y="669.9954133869585" as="targetPoint"/>
                    </mxGeometry>
                </mxCell>
                <mxCell id="_tPq-rbUrodUrHNc-6ks-7" value="&amp;lt;&amp;lt;include&amp;gt;&amp;gt;" style="edgeLabel;html=1;align=center;verticalAlign=middle;resizable=0;points=[];" parent="_tPq-rbUrodUrHNc-6ks-6" vertex="1" connectable="0">
                    <mxGeometry x="-0.1198" y="2" relative="1" as="geometry">
                        <mxPoint as="offset"/>
                    </mxGeometry>
                </mxCell>
                <mxCell id="_tPq-rbUrodUrHNc-6ks-22" value="Add nested Session" style="ellipse;whiteSpace=wrap;html=1;fillColor=#fff2cc;strokeColor=#d6b656;" parent="SgHygf1obzQeehWRGn5f-1" vertex="1">
                    <mxGeometry x="326" y="475" width="125" height="40" as="geometry"/>
                </mxCell>
                <mxCell id="_tPq-rbUrodUrHNc-6ks-23" value="approve Session" style="ellipse;whiteSpace=wrap;html=1;fillColor=#fff2cc;strokeColor=#d6b656;" parent="SgHygf1obzQeehWRGn5f-1" vertex="1">
                    <mxGeometry x="326" y="525" width="120" height="40" as="geometry"/>
                </mxCell>
                <mxCell id="_tPq-rbUrodUrHNc-6ks-26" style="edgeStyle=none;html=1;endArrow=block;endFill=0;" parent="SgHygf1obzQeehWRGn5f-1" source="_tPq-rbUrodUrHNc-6ks-22" target="tBhYiV4dybHf3C0FJZ62-5" edge="1">
                    <mxGeometry relative="1" as="geometry">
                        <mxPoint x="294.87033742709775" y="1150.1375730622171" as="sourcePoint"/>
                        <mxPoint x="347.55242533175135" y="1154.6160354443127" as="targetPoint"/>
                    </mxGeometry>
                </mxCell>
                <mxCell id="_tPq-rbUrodUrHNc-6ks-27" style="edgeStyle=none;html=1;endArrow=block;endFill=0;" parent="SgHygf1obzQeehWRGn5f-1" source="_tPq-rbUrodUrHNc-6ks-23" target="tBhYiV4dybHf3C0FJZ62-5" edge="1">
                    <mxGeometry relative="1" as="geometry">
                        <mxPoint x="277.50353595382" y="1110.0021592029925" as="sourcePoint"/>
                        <mxPoint x="359.8524540120078" y="1139.8778306154472" as="targetPoint"/>
                    </mxGeometry>
                </mxCell>
                <mxCell id="_tPq-rbUrodUrHNc-6ks-30" style="edgeStyle=none;html=1;dashed=1;" parent="SgHygf1obzQeehWRGn5f-1" source="tBhYiV4dybHf3C0FJZ62-5" target="tBhYiV4dybHf3C0FJZ62-6" edge="1">
                    <mxGeometry relative="1" as="geometry">
                        <mxPoint x="596.9834110667957" y="822.7048938413154" as="sourcePoint"/>
                        <mxPoint x="752.761473704501" y="637.2415209212031" as="targetPoint"/>
                    </mxGeometry>
                </mxCell>
                <mxCell id="_tPq-rbUrodUrHNc-6ks-31" value="&amp;lt;&amp;lt;include&amp;gt;&amp;gt;" style="edgeLabel;html=1;align=center;verticalAlign=middle;resizable=0;points=[];" parent="_tPq-rbUrodUrHNc-6ks-30" vertex="1" connectable="0">
                    <mxGeometry x="-0.1198" y="2" relative="1" as="geometry">
                        <mxPoint as="offset"/>
                    </mxGeometry>
                </mxCell>
                <mxCell id="zVfecXeR2O7ajFUi1tcA-0" value="" style="shape=folder;fontStyle=1;spacingTop=10;tabWidth=160;tabHeight=20;tabPosition=left;html=1;shadow=0;" parent="SgHygf1obzQeehWRGn5f-1" vertex="1">
                    <mxGeometry x="1377.9997297297298" y="145" width="493.77027027027026" height="820" as="geometry"/>
                </mxCell>
                <mxCell id="tBhYiV4dybHf3C0FJZ62-6" value="Authentification" style="ellipse;whiteSpace=wrap;html=1;fillColor=#d5e8d4;strokeColor=#82b366;" parent="SgHygf1obzQeehWRGn5f-1" vertex="1">
                    <mxGeometry x="834.9994594594594" y="391" width="113.32432432432432" height="70" as="geometry"/>
                </mxCell>
            </root>
        </mxGraphModel>
    </diagram>
    <diagram id="ttETtdz83I9K4PMVv_XU" name="Chart managment">
        <mxGraphModel dx="2455" dy="746" grid="0" gridSize="10" guides="1" tooltips="1" connect="1" arrows="1" fold="1" page="1" pageScale="1" pageWidth="1169" pageHeight="827" math="0" shadow="0">
            <root>
                <mxCell id="e9giC2nNCOoiWFTBTvgp-0"/>
                <mxCell id="e9giC2nNCOoiWFTBTvgp-1" parent="e9giC2nNCOoiWFTBTvgp-0"/>
                <mxCell id="csxftrDRh9M-hvTYitCq-110" style="edgeStyle=none;rounded=1;html=1;labelBackgroundColor=default;fontFamily=Helvetica;fontSize=11;fontColor=default;endArrow=none;endFill=0;strokeColor=default;elbow=vertical;" parent="e9giC2nNCOoiWFTBTvgp-1" source="3Vffm6xmNSZOYZIBuNL9-0" target="S16W7s6mc5vjerrBXip5-0" edge="1">
                    <mxGeometry relative="1" as="geometry"/>
                </mxCell>
                <mxCell id="csxftrDRh9M-hvTYitCq-113" style="edgeStyle=elbowEdgeStyle;rounded=1;html=1;labelBackgroundColor=default;fontFamily=Helvetica;fontSize=11;fontColor=default;endArrow=none;endFill=0;strokeColor=default;" parent="e9giC2nNCOoiWFTBTvgp-1" source="3Vffm6xmNSZOYZIBuNL9-0" target="csxftrDRh9M-hvTYitCq-49" edge="1">
                    <mxGeometry relative="1" as="geometry">
                        <Array as="points">
                            <mxPoint x="63" y="413"/>
                        </Array>
                    </mxGeometry>
                </mxCell>
                <mxCell id="csxftrDRh9M-hvTYitCq-114" style="edgeStyle=elbowEdgeStyle;rounded=1;html=1;labelBackgroundColor=default;fontFamily=Helvetica;fontSize=11;fontColor=default;endArrow=none;endFill=0;strokeColor=default;" parent="e9giC2nNCOoiWFTBTvgp-1" source="3Vffm6xmNSZOYZIBuNL9-0" target="csxftrDRh9M-hvTYitCq-85" edge="1">
                    <mxGeometry relative="1" as="geometry">
                        <Array as="points">
                            <mxPoint x="62" y="381"/>
                        </Array>
                    </mxGeometry>
                </mxCell>
                <mxCell id="csxftrDRh9M-hvTYitCq-115" style="edgeStyle=elbowEdgeStyle;rounded=1;html=1;labelBackgroundColor=default;fontFamily=Helvetica;fontSize=11;fontColor=default;endArrow=none;endFill=0;strokeColor=default;" parent="e9giC2nNCOoiWFTBTvgp-1" source="3Vffm6xmNSZOYZIBuNL9-0" target="i3umHautw32SvQqaLA5s-0" edge="1">
                    <mxGeometry relative="1" as="geometry">
                        <Array as="points">
                            <mxPoint x="65" y="104"/>
                        </Array>
                    </mxGeometry>
                </mxCell>
                <mxCell id="3Vffm6xmNSZOYZIBuNL9-0" value="User" style="shape=umlActor;verticalLabelPosition=bottom;verticalAlign=top;html=1;" parent="e9giC2nNCOoiWFTBTvgp-1" vertex="1">
                    <mxGeometry x="-27" y="351" width="30" height="60" as="geometry"/>
                </mxCell>
                <mxCell id="csxftrDRh9M-hvTYitCq-0" style="shape=connector;rounded=1;html=1;dashed=1;labelBackgroundColor=default;fontFamily=Helvetica;fontSize=11;fontColor=default;endArrow=open;endFill=0;strokeColor=default;edgeStyle=orthogonalEdgeStyle;" parent="e9giC2nNCOoiWFTBTvgp-1" source="S16W7s6mc5vjerrBXip5-0" target="4zJ8GUL2cR31X1t18k3D-0" edge="1">
                    <mxGeometry relative="1" as="geometry"/>
                </mxCell>
                <mxCell id="csxftrDRh9M-hvTYitCq-2" value="&amp;lt;&amp;lt;Include&amp;gt;&amp;gt;" style="edgeLabel;html=1;align=center;verticalAlign=middle;resizable=0;points=[];fontSize=11;fontFamily=Helvetica;fontColor=default;" parent="csxftrDRh9M-hvTYitCq-0" vertex="1" connectable="0">
                    <mxGeometry x="-0.2553" y="-2" relative="1" as="geometry">
                        <mxPoint x="-52" y="-2" as="offset"/>
                    </mxGeometry>
                </mxCell>
                <mxCell id="S16W7s6mc5vjerrBXip5-0" value="Graphcal chart managment" style="ellipse;whiteSpace=wrap;html=1;fillColor=#dae8fc;strokeColor=#6c8ebf;" parent="e9giC2nNCOoiWFTBTvgp-1" vertex="1">
                    <mxGeometry x="619" y="351" width="140" height="70" as="geometry"/>
                </mxCell>
                <mxCell id="i3umHautw32SvQqaLA5s-6" style="edgeStyle=orthogonalEdgeStyle;shape=connector;rounded=1;html=1;labelBackgroundColor=default;fontFamily=Helvetica;fontSize=11;fontColor=default;endArrow=open;endFill=0;strokeColor=default;dashed=1;" parent="e9giC2nNCOoiWFTBTvgp-1" source="-M9FC-FpmMgTubWRSfXl-0" target="S16W7s6mc5vjerrBXip5-0" edge="1">
                    <mxGeometry relative="1" as="geometry"/>
                </mxCell>
                <mxCell id="csxftrDRh9M-hvTYitCq-1" value="&amp;lt;&amp;lt;Extends&amp;gt;&amp;gt;" style="edgeLabel;html=1;align=center;verticalAlign=middle;resizable=0;points=[];fontSize=11;fontFamily=Helvetica;fontColor=default;" parent="i3umHautw32SvQqaLA5s-6" vertex="1" connectable="0">
                    <mxGeometry x="0.4315" y="-3" relative="1" as="geometry">
                        <mxPoint x="-87" y="-39" as="offset"/>
                    </mxGeometry>
                </mxCell>
                <mxCell id="-M9FC-FpmMgTubWRSfXl-0" value="Display my OKRs" style="ellipse;whiteSpace=wrap;html=1;fillColor=#fff2cc;strokeColor=#d6b656;" parent="e9giC2nNCOoiWFTBTvgp-1" vertex="1">
                    <mxGeometry x="543" y="198" width="125" height="40" as="geometry"/>
                </mxCell>
                <mxCell id="i3umHautw32SvQqaLA5s-5" style="shape=connector;rounded=1;html=1;labelBackgroundColor=default;fontFamily=Helvetica;fontSize=11;fontColor=default;endArrow=block;endFill=0;strokeColor=default;" parent="e9giC2nNCOoiWFTBTvgp-1" source="-M9FC-FpmMgTubWRSfXl-1" target="-M9FC-FpmMgTubWRSfXl-0" edge="1">
                    <mxGeometry relative="1" as="geometry"/>
                </mxCell>
                <mxCell id="csxftrDRh9M-hvTYitCq-43" style="shape=connector;rounded=1;elbow=vertical;html=1;labelBackgroundColor=default;fontFamily=Helvetica;fontSize=11;fontColor=default;endArrow=block;endFill=0;strokeColor=default;" parent="e9giC2nNCOoiWFTBTvgp-1" source="-M9FC-FpmMgTubWRSfXl-1" target="csxftrDRh9M-hvTYitCq-41" edge="1">
                    <mxGeometry relative="1" as="geometry"/>
                </mxCell>
                <mxCell id="-M9FC-FpmMgTubWRSfXl-1" value="Sort by Filters" style="ellipse;whiteSpace=wrap;html=1;fillColor=#fff2cc;strokeColor=#d6b656;" parent="e9giC2nNCOoiWFTBTvgp-1" vertex="1">
                    <mxGeometry x="394" y="244" width="125" height="40" as="geometry"/>
                </mxCell>
                <mxCell id="i3umHautw32SvQqaLA5s-4" style="shape=connector;rounded=1;html=1;labelBackgroundColor=default;fontFamily=Helvetica;fontSize=11;fontColor=default;endArrow=block;endFill=0;strokeColor=default;" parent="e9giC2nNCOoiWFTBTvgp-1" source="-M9FC-FpmMgTubWRSfXl-2" target="-M9FC-FpmMgTubWRSfXl-0" edge="1">
                    <mxGeometry relative="1" as="geometry">
                        <mxPoint x="583" y="259" as="targetPoint"/>
                    </mxGeometry>
                </mxCell>
                <mxCell id="csxftrDRh9M-hvTYitCq-42" style="shape=connector;rounded=1;elbow=vertical;html=1;labelBackgroundColor=default;fontFamily=Helvetica;fontSize=11;fontColor=default;endArrow=block;endFill=0;strokeColor=default;" parent="e9giC2nNCOoiWFTBTvgp-1" source="-M9FC-FpmMgTubWRSfXl-2" target="csxftrDRh9M-hvTYitCq-41" edge="1">
                    <mxGeometry relative="1" as="geometry"/>
                </mxCell>
                <mxCell id="-M9FC-FpmMgTubWRSfXl-2" value="search by title" style="ellipse;whiteSpace=wrap;html=1;fillColor=#fff2cc;strokeColor=#d6b656;" parent="e9giC2nNCOoiWFTBTvgp-1" vertex="1">
                    <mxGeometry x="394" y="198" width="125" height="40" as="geometry"/>
                </mxCell>
                <mxCell id="4zJ8GUL2cR31X1t18k3D-0" value="Authentification" style="ellipse;whiteSpace=wrap;html=1;fillColor=#d5e8d4;strokeColor=#82b366;" parent="e9giC2nNCOoiWFTBTvgp-1" vertex="1">
                    <mxGeometry x="1043.9994594594596" y="387" width="113.32432432432432" height="70" as="geometry"/>
                </mxCell>
                <mxCell id="i3umHautw32SvQqaLA5s-0" value="hierarchical Table managment" style="ellipse;whiteSpace=wrap;html=1;fillColor=#dae8fc;strokeColor=#6c8ebf;" parent="e9giC2nNCOoiWFTBTvgp-1" vertex="1">
                    <mxGeometry x="619" y="22" width="140" height="70" as="geometry"/>
                </mxCell>
                <mxCell id="csxftrDRh9M-hvTYitCq-7" style="shape=connector;rounded=1;html=1;dashed=1;labelBackgroundColor=default;fontFamily=Helvetica;fontSize=11;fontColor=default;endArrow=open;endFill=0;strokeColor=default;edgeStyle=orthogonalEdgeStyle;" parent="e9giC2nNCOoiWFTBTvgp-1" source="i3umHautw32SvQqaLA5s-0" target="4zJ8GUL2cR31X1t18k3D-0" edge="1">
                    <mxGeometry relative="1" as="geometry">
                        <mxPoint x="790" y="32" as="sourcePoint"/>
                        <mxPoint x="1020.9994594594596" y="32" as="targetPoint"/>
                    </mxGeometry>
                </mxCell>
                <mxCell id="csxftrDRh9M-hvTYitCq-8" value="&amp;lt;&amp;lt;Include&amp;gt;&amp;gt;" style="edgeLabel;html=1;align=center;verticalAlign=middle;resizable=0;points=[];fontSize=11;fontFamily=Helvetica;fontColor=default;" parent="csxftrDRh9M-hvTYitCq-7" vertex="1" connectable="0">
                    <mxGeometry x="-0.2553" y="-2" relative="1" as="geometry">
                        <mxPoint x="-157" y="-2" as="offset"/>
                    </mxGeometry>
                </mxCell>
                <mxCell id="csxftrDRh9M-hvTYitCq-9" style="shape=connector;rounded=1;html=1;labelBackgroundColor=default;fontFamily=Helvetica;fontSize=11;fontColor=default;endArrow=open;endFill=0;strokeColor=default;dashed=1;edgeStyle=orthogonalEdgeStyle;" parent="e9giC2nNCOoiWFTBTvgp-1" source="csxftrDRh9M-hvTYitCq-11" target="S16W7s6mc5vjerrBXip5-0" edge="1">
                    <mxGeometry relative="1" as="geometry">
                        <mxPoint x="974" y="334" as="targetPoint"/>
                    </mxGeometry>
                </mxCell>
                <mxCell id="csxftrDRh9M-hvTYitCq-10" value="&amp;lt;&amp;lt;Extends&amp;gt;&amp;gt;" style="edgeLabel;html=1;align=center;verticalAlign=middle;resizable=0;points=[];fontSize=11;fontFamily=Helvetica;fontColor=default;" parent="csxftrDRh9M-hvTYitCq-9" vertex="1" connectable="0">
                    <mxGeometry x="0.4315" y="-3" relative="1" as="geometry">
                        <mxPoint x="62" y="-44" as="offset"/>
                    </mxGeometry>
                </mxCell>
                <mxCell id="csxftrDRh9M-hvTYitCq-11" value="Copy Component link" style="ellipse;whiteSpace=wrap;html=1;fillColor=#fff2cc;strokeColor=#d6b656;" parent="e9giC2nNCOoiWFTBTvgp-1" vertex="1">
                    <mxGeometry x="682" y="198" width="125" height="40" as="geometry"/>
                </mxCell>
                <mxCell id="csxftrDRh9M-hvTYitCq-26" style="shape=connector;rounded=1;html=1;dashed=1;labelBackgroundColor=default;fontFamily=Helvetica;fontSize=11;fontColor=default;endArrow=open;endFill=0;strokeColor=default;edgeStyle=orthogonalEdgeStyle;" parent="e9giC2nNCOoiWFTBTvgp-1" source="csxftrDRh9M-hvTYitCq-11" target="i3umHautw32SvQqaLA5s-0" edge="1">
                    <mxGeometry relative="1" as="geometry">
                        <mxPoint x="769" y="271" as="sourcePoint"/>
                        <mxPoint x="1043.999459459461" y="271" as="targetPoint"/>
                        <Array as="points">
                            <mxPoint x="744" y="118"/>
                            <mxPoint x="689" y="118"/>
                        </Array>
                    </mxGeometry>
                </mxCell>
                <mxCell id="csxftrDRh9M-hvTYitCq-27" value="&amp;lt;&amp;lt;Extends&amp;gt;&amp;gt;" style="edgeLabel;html=1;align=center;verticalAlign=middle;resizable=0;points=[];fontSize=11;fontFamily=Helvetica;fontColor=default;" parent="csxftrDRh9M-hvTYitCq-26" vertex="1" connectable="0">
                    <mxGeometry x="-0.2553" y="-2" relative="1" as="geometry">
                        <mxPoint x="-6" y="37" as="offset"/>
                    </mxGeometry>
                </mxCell>
                <mxCell id="csxftrDRh9M-hvTYitCq-28" style="shape=connector;rounded=1;html=1;dashed=1;labelBackgroundColor=default;fontFamily=Helvetica;fontSize=11;fontColor=default;endArrow=open;endFill=0;strokeColor=default;edgeStyle=orthogonalEdgeStyle;" parent="e9giC2nNCOoiWFTBTvgp-1" source="-M9FC-FpmMgTubWRSfXl-0" target="i3umHautw32SvQqaLA5s-0" edge="1">
                    <mxGeometry relative="1" as="geometry">
                        <mxPoint x="769" y="271" as="sourcePoint"/>
                        <mxPoint x="1043.999459459461" y="271" as="targetPoint"/>
                        <Array as="points">
                            <mxPoint x="606" y="118"/>
                            <mxPoint x="689" y="118"/>
                        </Array>
                    </mxGeometry>
                </mxCell>
                <mxCell id="csxftrDRh9M-hvTYitCq-29" value="&amp;lt;&amp;lt;Extends&amp;gt;&amp;gt;" style="edgeLabel;html=1;align=center;verticalAlign=middle;resizable=0;points=[];fontSize=11;fontFamily=Helvetica;fontColor=default;" parent="csxftrDRh9M-hvTYitCq-28" vertex="1" connectable="0">
                    <mxGeometry x="-0.2553" y="-2" relative="1" as="geometry">
                        <mxPoint x="-2" y="50" as="offset"/>
                    </mxGeometry>
                </mxCell>
                <mxCell id="csxftrDRh9M-hvTYitCq-30" value="select component for update" style="ellipse;whiteSpace=wrap;html=1;fillColor=#fff2cc;strokeColor=#d6b656;" parent="e9giC2nNCOoiWFTBTvgp-1" vertex="1">
                    <mxGeometry x="821" y="193" width="129" height="50" as="geometry"/>
                </mxCell>
                <mxCell id="csxftrDRh9M-hvTYitCq-32" style="shape=connector;rounded=1;html=1;dashed=1;labelBackgroundColor=default;fontFamily=Helvetica;fontSize=11;fontColor=default;endArrow=open;endFill=0;strokeColor=default;edgeStyle=elbowEdgeStyle;elbow=vertical;" parent="e9giC2nNCOoiWFTBTvgp-1" source="csxftrDRh9M-hvTYitCq-30" target="S16W7s6mc5vjerrBXip5-0" edge="1">
                    <mxGeometry relative="1" as="geometry">
                        <mxPoint x="826" y="199" as="sourcePoint"/>
                        <mxPoint x="1043.9994594594598" y="271" as="targetPoint"/>
                    </mxGeometry>
                </mxCell>
                <mxCell id="csxftrDRh9M-hvTYitCq-33" value="&amp;lt;&amp;lt;Extends&amp;gt;&amp;gt;" style="edgeLabel;html=1;align=center;verticalAlign=middle;resizable=0;points=[];fontSize=11;fontFamily=Helvetica;fontColor=default;" parent="csxftrDRh9M-hvTYitCq-32" vertex="1" connectable="0">
                    <mxGeometry x="-0.2553" y="-2" relative="1" as="geometry">
                        <mxPoint x="53" y="-38" as="offset"/>
                    </mxGeometry>
                </mxCell>
                <mxCell id="csxftrDRh9M-hvTYitCq-34" style="shape=connector;rounded=1;html=1;dashed=1;labelBackgroundColor=default;fontFamily=Helvetica;fontSize=11;fontColor=default;endArrow=open;endFill=0;strokeColor=default;edgeStyle=elbowEdgeStyle;elbow=vertical;" parent="e9giC2nNCOoiWFTBTvgp-1" source="csxftrDRh9M-hvTYitCq-30" target="i3umHautw32SvQqaLA5s-0" edge="1">
                    <mxGeometry relative="1" as="geometry">
                        <mxPoint x="754.5000000000002" y="211" as="sourcePoint"/>
                        <mxPoint x="837" y="49" as="targetPoint"/>
                        <Array as="points">
                            <mxPoint x="808" y="117"/>
                        </Array>
                    </mxGeometry>
                </mxCell>
                <mxCell id="csxftrDRh9M-hvTYitCq-35" value="&amp;lt;&amp;lt;Extends&amp;gt;&amp;gt;" style="edgeLabel;html=1;align=center;verticalAlign=middle;resizable=0;points=[];fontSize=11;fontFamily=Helvetica;fontColor=default;" parent="csxftrDRh9M-hvTYitCq-34" vertex="1" connectable="0">
                    <mxGeometry x="-0.2553" y="-2" relative="1" as="geometry">
                        <mxPoint x="35" y="56" as="offset"/>
                    </mxGeometry>
                </mxCell>
                <mxCell id="csxftrDRh9M-hvTYitCq-41" value="Display Session OKRs" style="ellipse;whiteSpace=wrap;html=1;fillColor=#fff2cc;strokeColor=#d6b656;" parent="e9giC2nNCOoiWFTBTvgp-1" vertex="1">
                    <mxGeometry x="237" y="198" width="125" height="40" as="geometry"/>
                </mxCell>
                <mxCell id="csxftrDRh9M-hvTYitCq-44" style="shape=connector;rounded=1;html=1;dashed=1;labelBackgroundColor=default;fontFamily=Helvetica;fontSize=11;fontColor=default;endArrow=open;endFill=0;strokeColor=default;edgeStyle=elbowEdgeStyle;elbow=vertical;" parent="e9giC2nNCOoiWFTBTvgp-1" source="csxftrDRh9M-hvTYitCq-41" target="i3umHautw32SvQqaLA5s-0" edge="1">
                    <mxGeometry relative="1" as="geometry">
                        <mxPoint x="615.5" y="208.0000000000001" as="sourcePoint"/>
                        <mxPoint x="699" y="49" as="targetPoint"/>
                        <Array as="points">
                            <mxPoint x="568" y="118"/>
                            <mxPoint x="337" y="111"/>
                        </Array>
                    </mxGeometry>
                </mxCell>
                <mxCell id="csxftrDRh9M-hvTYitCq-45" value="&amp;lt;&amp;lt;Extends&amp;gt;&amp;gt;" style="edgeLabel;html=1;align=center;verticalAlign=middle;resizable=0;points=[];fontSize=11;fontFamily=Helvetica;fontColor=default;" parent="csxftrDRh9M-hvTYitCq-44" vertex="1" connectable="0">
                    <mxGeometry x="-0.2553" y="-2" relative="1" as="geometry">
                        <mxPoint x="-102" y="52" as="offset"/>
                    </mxGeometry>
                </mxCell>
                <mxCell id="csxftrDRh9M-hvTYitCq-46" style="shape=connector;rounded=1;html=1;dashed=1;labelBackgroundColor=default;fontFamily=Helvetica;fontSize=11;fontColor=default;endArrow=open;endFill=0;strokeColor=default;edgeStyle=elbowEdgeStyle;elbow=vertical;" parent="e9giC2nNCOoiWFTBTvgp-1" source="csxftrDRh9M-hvTYitCq-41" target="S16W7s6mc5vjerrBXip5-0" edge="1">
                    <mxGeometry relative="1" as="geometry">
                        <mxPoint x="363.5" y="204" as="sourcePoint"/>
                        <mxPoint x="657" y="305" as="targetPoint"/>
                    </mxGeometry>
                </mxCell>
                <mxCell id="csxftrDRh9M-hvTYitCq-47" value="&amp;lt;&amp;lt;Extends&amp;gt;&amp;gt;" style="edgeLabel;html=1;align=center;verticalAlign=middle;resizable=0;points=[];fontSize=11;fontFamily=Helvetica;fontColor=default;" parent="csxftrDRh9M-hvTYitCq-46" vertex="1" connectable="0">
                    <mxGeometry x="-0.2553" y="-2" relative="1" as="geometry">
                        <mxPoint x="-134" y="-36" as="offset"/>
                    </mxGeometry>
                </mxCell>
                <mxCell id="csxftrDRh9M-hvTYitCq-51" style="edgeStyle=orthogonalEdgeStyle;shape=connector;rounded=1;html=1;labelBackgroundColor=default;fontFamily=Helvetica;fontSize=11;fontColor=default;endArrow=open;endFill=0;strokeColor=default;dashed=1;" parent="e9giC2nNCOoiWFTBTvgp-1" source="csxftrDRh9M-hvTYitCq-49" target="4zJ8GUL2cR31X1t18k3D-0" edge="1">
                    <mxGeometry relative="1" as="geometry"/>
                </mxCell>
                <mxCell id="csxftrDRh9M-hvTYitCq-52" value="&amp;lt;&amp;lt;Include&amp;gt;&amp;gt;" style="edgeLabel;html=1;align=center;verticalAlign=middle;resizable=0;points=[];fontSize=11;fontFamily=Helvetica;fontColor=default;" parent="csxftrDRh9M-hvTYitCq-51" vertex="1" connectable="0">
                    <mxGeometry x="-0.6979" relative="1" as="geometry">
                        <mxPoint x="22" as="offset"/>
                    </mxGeometry>
                </mxCell>
                <mxCell id="csxftrDRh9M-hvTYitCq-49" value="Task chart Managment" style="ellipse;whiteSpace=wrap;html=1;fillColor=#dae8fc;strokeColor=#6c8ebf;" parent="e9giC2nNCOoiWFTBTvgp-1" vertex="1">
                    <mxGeometry x="614.5" y="425" width="140" height="70" as="geometry"/>
                </mxCell>
                <mxCell id="csxftrDRh9M-hvTYitCq-53" value="Display my Tasks" style="ellipse;whiteSpace=wrap;html=1;fillColor=#fff2cc;strokeColor=#d6b656;" parent="e9giC2nNCOoiWFTBTvgp-1" vertex="1">
                    <mxGeometry x="801.5" y="569" width="125" height="40" as="geometry"/>
                </mxCell>
                <mxCell id="iyzK5RcVdP3QwGbg0JI1-4" style="edgeStyle=none;shape=connector;rounded=1;html=1;labelBackgroundColor=default;fontFamily=Helvetica;fontSize=11;fontColor=default;endArrow=block;endFill=0;strokeColor=default;" edge="1" parent="e9giC2nNCOoiWFTBTvgp-1" source="csxftrDRh9M-hvTYitCq-54" target="csxftrDRh9M-hvTYitCq-56">
                    <mxGeometry relative="1" as="geometry"/>
                </mxCell>
                <mxCell id="iyzK5RcVdP3QwGbg0JI1-7" style="edgeStyle=none;shape=connector;rounded=1;html=1;labelBackgroundColor=default;fontFamily=Helvetica;fontSize=11;fontColor=default;endArrow=block;endFill=0;strokeColor=default;" edge="1" parent="e9giC2nNCOoiWFTBTvgp-1" source="csxftrDRh9M-hvTYitCq-54" target="csxftrDRh9M-hvTYitCq-53">
                    <mxGeometry relative="1" as="geometry"/>
                </mxCell>
                <mxCell id="csxftrDRh9M-hvTYitCq-54" value="Sort by Filters" style="ellipse;whiteSpace=wrap;html=1;fillColor=#fff2cc;strokeColor=#d6b656;" parent="e9giC2nNCOoiWFTBTvgp-1" vertex="1">
                    <mxGeometry x="619.5" y="569" width="125" height="40" as="geometry"/>
                </mxCell>
                <mxCell id="iyzK5RcVdP3QwGbg0JI1-3" style="edgeStyle=none;shape=connector;rounded=1;html=1;labelBackgroundColor=default;fontFamily=Helvetica;fontSize=11;fontColor=default;endArrow=block;endFill=0;strokeColor=default;" edge="1" parent="e9giC2nNCOoiWFTBTvgp-1" source="csxftrDRh9M-hvTYitCq-55" target="csxftrDRh9M-hvTYitCq-56">
                    <mxGeometry relative="1" as="geometry"/>
                </mxCell>
                <mxCell id="iyzK5RcVdP3QwGbg0JI1-6" style="edgeStyle=none;shape=connector;rounded=1;html=1;labelBackgroundColor=default;fontFamily=Helvetica;fontSize=11;fontColor=default;endArrow=block;endFill=0;strokeColor=default;" edge="1" parent="e9giC2nNCOoiWFTBTvgp-1" source="csxftrDRh9M-hvTYitCq-55" target="csxftrDRh9M-hvTYitCq-53">
                    <mxGeometry relative="1" as="geometry"/>
                </mxCell>
                <mxCell id="csxftrDRh9M-hvTYitCq-55" value="search by title" style="ellipse;whiteSpace=wrap;html=1;fillColor=#fff2cc;strokeColor=#d6b656;" parent="e9giC2nNCOoiWFTBTvgp-1" vertex="1">
                    <mxGeometry x="622.5" y="529" width="125" height="40" as="geometry"/>
                </mxCell>
                <mxCell id="csxftrDRh9M-hvTYitCq-56" value="Display Session tasks" style="ellipse;whiteSpace=wrap;html=1;fillColor=#fff2cc;strokeColor=#d6b656;" parent="e9giC2nNCOoiWFTBTvgp-1" vertex="1">
                    <mxGeometry x="442.5" y="569" width="125" height="40" as="geometry"/>
                </mxCell>
                <mxCell id="csxftrDRh9M-hvTYitCq-63" style="shape=connector;rounded=1;html=1;dashed=1;labelBackgroundColor=default;fontFamily=Helvetica;fontSize=11;fontColor=default;endArrow=open;endFill=0;strokeColor=default;elbow=vertical;edgeStyle=orthogonalEdgeStyle;" parent="e9giC2nNCOoiWFTBTvgp-1" source="csxftrDRh9M-hvTYitCq-56" target="csxftrDRh9M-hvTYitCq-49" edge="1">
                    <mxGeometry relative="1" as="geometry">
                        <mxPoint x="285.5" y="646" as="sourcePoint"/>
                        <mxPoint x="621" y="491" as="targetPoint"/>
                        <Array as="points">
                            <mxPoint x="510" y="521"/>
                            <mxPoint x="691" y="521"/>
                        </Array>
                    </mxGeometry>
                </mxCell>
                <mxCell id="csxftrDRh9M-hvTYitCq-64" value="&amp;lt;&amp;lt;Extends&amp;gt;&amp;gt;" style="edgeLabel;html=1;align=center;verticalAlign=middle;resizable=0;points=[];fontSize=11;fontFamily=Helvetica;fontColor=default;" parent="csxftrDRh9M-hvTYitCq-63" vertex="1" connectable="0">
                    <mxGeometry x="-0.2553" y="-2" relative="1" as="geometry">
                        <mxPoint x="-47" y="23" as="offset"/>
                    </mxGeometry>
                </mxCell>
                <mxCell id="csxftrDRh9M-hvTYitCq-65" style="shape=connector;rounded=1;html=1;dashed=1;labelBackgroundColor=default;fontFamily=Helvetica;fontSize=11;fontColor=default;endArrow=open;endFill=0;strokeColor=default;elbow=vertical;edgeStyle=orthogonalEdgeStyle;" parent="e9giC2nNCOoiWFTBTvgp-1" source="csxftrDRh9M-hvTYitCq-53" target="csxftrDRh9M-hvTYitCq-49" edge="1">
                    <mxGeometry relative="1" as="geometry">
                        <mxPoint x="285.5" y="686" as="sourcePoint"/>
                        <mxPoint x="621" y="847" as="targetPoint"/>
                        <Array as="points">
                            <mxPoint x="863" y="520"/>
                            <mxPoint x="691" y="520"/>
                        </Array>
                    </mxGeometry>
                </mxCell>
                <mxCell id="csxftrDRh9M-hvTYitCq-66" value="&amp;lt;&amp;lt;Extends&amp;gt;&amp;gt;" style="edgeLabel;html=1;align=center;verticalAlign=middle;resizable=0;points=[];fontSize=11;fontFamily=Helvetica;fontColor=default;" parent="csxftrDRh9M-hvTYitCq-65" vertex="1" connectable="0">
                    <mxGeometry x="-0.2553" y="-2" relative="1" as="geometry">
                        <mxPoint x="40" y="24" as="offset"/>
                    </mxGeometry>
                </mxCell>
                <mxCell id="csxftrDRh9M-hvTYitCq-70" style="rounded=1;html=1;labelBackgroundColor=default;fontFamily=Helvetica;fontSize=11;fontColor=default;endArrow=block;endFill=0;strokeColor=default;elbow=vertical;" parent="e9giC2nNCOoiWFTBTvgp-1" source="csxftrDRh9M-hvTYitCq-68" target="-M9FC-FpmMgTubWRSfXl-0" edge="1">
                    <mxGeometry relative="1" as="geometry"/>
                </mxCell>
                <mxCell id="csxftrDRh9M-hvTYitCq-71" style="shape=connector;rounded=1;html=1;labelBackgroundColor=default;fontFamily=Helvetica;fontSize=11;fontColor=default;endArrow=block;endFill=0;strokeColor=default;elbow=vertical;" parent="e9giC2nNCOoiWFTBTvgp-1" source="csxftrDRh9M-hvTYitCq-68" target="csxftrDRh9M-hvTYitCq-41" edge="1">
                    <mxGeometry relative="1" as="geometry"/>
                </mxCell>
                <mxCell id="csxftrDRh9M-hvTYitCq-68" value="Sort by" style="ellipse;whiteSpace=wrap;html=1;fillColor=#fff2cc;strokeColor=#d6b656;" parent="e9giC2nNCOoiWFTBTvgp-1" vertex="1">
                    <mxGeometry x="394" y="143" width="125" height="40" as="geometry"/>
                </mxCell>
                <mxCell id="iyzK5RcVdP3QwGbg0JI1-5" style="edgeStyle=none;shape=connector;rounded=1;html=1;labelBackgroundColor=default;fontFamily=Helvetica;fontSize=11;fontColor=default;endArrow=block;endFill=0;strokeColor=default;" edge="1" parent="e9giC2nNCOoiWFTBTvgp-1" source="csxftrDRh9M-hvTYitCq-74" target="csxftrDRh9M-hvTYitCq-56">
                    <mxGeometry relative="1" as="geometry"/>
                </mxCell>
                <mxCell id="iyzK5RcVdP3QwGbg0JI1-8" style="edgeStyle=none;shape=connector;rounded=1;html=1;labelBackgroundColor=default;fontFamily=Helvetica;fontSize=11;fontColor=default;endArrow=block;endFill=0;strokeColor=default;" edge="1" parent="e9giC2nNCOoiWFTBTvgp-1" source="csxftrDRh9M-hvTYitCq-74" target="csxftrDRh9M-hvTYitCq-53">
                    <mxGeometry relative="1" as="geometry"/>
                </mxCell>
                <mxCell id="csxftrDRh9M-hvTYitCq-74" value="Sort by" style="ellipse;whiteSpace=wrap;html=1;fillColor=#fff2cc;strokeColor=#d6b656;" parent="e9giC2nNCOoiWFTBTvgp-1" vertex="1">
                    <mxGeometry x="622.5" y="617" width="125" height="40" as="geometry"/>
                </mxCell>
                <mxCell id="csxftrDRh9M-hvTYitCq-76" style="edgeStyle=elbowEdgeStyle;rounded=1;html=1;labelBackgroundColor=default;fontFamily=Helvetica;fontSize=11;fontColor=default;endArrow=none;endFill=0;strokeColor=default;dashed=1;elbow=vertical;" parent="e9giC2nNCOoiWFTBTvgp-1" source="csxftrDRh9M-hvTYitCq-75" target="i3umHautw32SvQqaLA5s-0" edge="1">
                    <mxGeometry relative="1" as="geometry">
                        <Array as="points">
                            <mxPoint x="1032" y="116"/>
                            <mxPoint x="1069" y="116"/>
                            <mxPoint x="1180" y="121"/>
                        </Array>
                    </mxGeometry>
                </mxCell>
                <mxCell id="csxftrDRh9M-hvTYitCq-80" value="&amp;lt;&amp;lt;Extends&amp;gt;&amp;gt;" style="edgeLabel;html=1;align=center;verticalAlign=middle;resizable=0;points=[];fontSize=11;fontFamily=Helvetica;fontColor=default;" parent="csxftrDRh9M-hvTYitCq-76" vertex="1" connectable="0">
                    <mxGeometry x="-0.889" y="-2" relative="1" as="geometry">
                        <mxPoint y="1" as="offset"/>
                    </mxGeometry>
                </mxCell>
                <mxCell id="csxftrDRh9M-hvTYitCq-77" style="edgeStyle=elbowEdgeStyle;rounded=1;html=1;labelBackgroundColor=default;fontFamily=Helvetica;fontSize=11;fontColor=default;endArrow=none;endFill=0;strokeColor=default;dashed=1;elbow=vertical;" parent="e9giC2nNCOoiWFTBTvgp-1" source="csxftrDRh9M-hvTYitCq-75" target="S16W7s6mc5vjerrBXip5-0" edge="1">
                    <mxGeometry relative="1" as="geometry">
                        <Array as="points">
                            <mxPoint x="919" y="297"/>
                            <mxPoint x="1035" y="317"/>
                            <mxPoint x="1088" y="317"/>
                        </Array>
                    </mxGeometry>
                </mxCell>
                <mxCell id="csxftrDRh9M-hvTYitCq-81" value="&amp;lt;&amp;lt;Extends&amp;gt;&amp;gt;" style="edgeLabel;html=1;align=center;verticalAlign=middle;resizable=0;points=[];fontSize=11;fontFamily=Helvetica;fontColor=default;" parent="csxftrDRh9M-hvTYitCq-77" vertex="1" connectable="0">
                    <mxGeometry x="-0.8837" y="-3" relative="1" as="geometry">
                        <mxPoint y="1" as="offset"/>
                    </mxGeometry>
                </mxCell>
                <mxCell id="csxftrDRh9M-hvTYitCq-75" value="Export to ..." style="ellipse;whiteSpace=wrap;html=1;fillColor=#fff2cc;strokeColor=#d6b656;" parent="e9giC2nNCOoiWFTBTvgp-1" vertex="1">
                    <mxGeometry x="964" y="198" width="125" height="40" as="geometry"/>
                </mxCell>
                <mxCell id="csxftrDRh9M-hvTYitCq-85" value="Statistics Managment" style="ellipse;whiteSpace=wrap;html=1;fillColor=#dae8fc;strokeColor=#6c8ebf;" parent="e9giC2nNCOoiWFTBTvgp-1" vertex="1">
                    <mxGeometry x="176" y="472" width="140" height="70" as="geometry"/>
                </mxCell>
                <mxCell id="csxftrDRh9M-hvTYitCq-87" style="edgeStyle=orthogonalEdgeStyle;shape=connector;rounded=1;html=1;labelBackgroundColor=default;fontFamily=Helvetica;fontSize=11;fontColor=default;endArrow=open;endFill=0;strokeColor=default;dashed=1;" parent="e9giC2nNCOoiWFTBTvgp-1" source="csxftrDRh9M-hvTYitCq-85" target="4zJ8GUL2cR31X1t18k3D-0" edge="1">
                    <mxGeometry relative="1" as="geometry">
                        <mxPoint x="812" y="829" as="sourcePoint"/>
                        <mxPoint x="1371.661621621622" y="561" as="targetPoint"/>
                    </mxGeometry>
                </mxCell>
                <mxCell id="csxftrDRh9M-hvTYitCq-88" value="&amp;lt;&amp;lt;Include&amp;gt;&amp;gt;" style="edgeLabel;html=1;align=center;verticalAlign=middle;resizable=0;points=[];fontSize=11;fontFamily=Helvetica;fontColor=default;" parent="csxftrDRh9M-hvTYitCq-87" vertex="1" connectable="0">
                    <mxGeometry x="-0.6979" relative="1" as="geometry">
                        <mxPoint x="-12" as="offset"/>
                    </mxGeometry>
                </mxCell>
                <mxCell id="csxftrDRh9M-hvTYitCq-98" style="edgeStyle=none;shape=connector;rounded=1;html=1;labelBackgroundColor=default;fontFamily=Helvetica;fontSize=11;fontColor=default;endArrow=block;endFill=0;strokeColor=default;" parent="e9giC2nNCOoiWFTBTvgp-1" source="csxftrDRh9M-hvTYitCq-91" target="csxftrDRh9M-hvTYitCq-85" edge="1">
                    <mxGeometry relative="1" as="geometry"/>
                </mxCell>
                <mxCell id="csxftrDRh9M-hvTYitCq-91" value="Display Session tasks" style="ellipse;whiteSpace=wrap;html=1;fillColor=#fff2cc;strokeColor=#d6b656;" parent="e9giC2nNCOoiWFTBTvgp-1" vertex="1">
                    <mxGeometry x="90" y="580" width="125" height="40" as="geometry"/>
                </mxCell>
                <mxCell id="csxftrDRh9M-hvTYitCq-100" style="edgeStyle=none;shape=connector;rounded=1;html=1;labelBackgroundColor=default;fontFamily=Helvetica;fontSize=11;fontColor=default;endArrow=block;endFill=0;strokeColor=default;" parent="e9giC2nNCOoiWFTBTvgp-1" source="csxftrDRh9M-hvTYitCq-99" target="csxftrDRh9M-hvTYitCq-91" edge="1">
                    <mxGeometry relative="1" as="geometry"/>
                </mxCell>
                <mxCell id="csxftrDRh9M-hvTYitCq-99" value="choose Session" style="ellipse;whiteSpace=wrap;html=1;fillColor=#fff2cc;strokeColor=#d6b656;" parent="e9giC2nNCOoiWFTBTvgp-1" vertex="1">
                    <mxGeometry x="266" y="580" width="125" height="40" as="geometry"/>
                </mxCell>
                <mxCell id="csxftrDRh9M-hvTYitCq-104" style="edgeStyle=elbowEdgeStyle;shape=connector;rounded=1;elbow=vertical;html=1;dashed=1;labelBackgroundColor=default;fontFamily=Helvetica;fontSize=11;fontColor=default;endArrow=open;endFill=0;strokeColor=default;" parent="e9giC2nNCOoiWFTBTvgp-1" source="csxftrDRh9M-hvTYitCq-101" target="i3umHautw32SvQqaLA5s-0" edge="1">
                    <mxGeometry relative="1" as="geometry">
                        <Array as="points">
                            <mxPoint x="587" y="119"/>
                        </Array>
                    </mxGeometry>
                </mxCell>
                <mxCell id="csxftrDRh9M-hvTYitCq-105" style="edgeStyle=elbowEdgeStyle;shape=connector;rounded=1;elbow=vertical;html=1;dashed=1;labelBackgroundColor=default;fontFamily=Helvetica;fontSize=11;fontColor=default;endArrow=open;endFill=0;strokeColor=default;" parent="e9giC2nNCOoiWFTBTvgp-1" source="csxftrDRh9M-hvTYitCq-101" target="S16W7s6mc5vjerrBXip5-0" edge="1">
                    <mxGeometry relative="1" as="geometry">
                        <Array as="points">
                            <mxPoint x="551" y="296"/>
                            <mxPoint x="269" y="316"/>
                        </Array>
                    </mxGeometry>
                </mxCell>
                <mxCell id="csxftrDRh9M-hvTYitCq-101" value="OKR managment" style="ellipse;whiteSpace=wrap;html=1;fillColor=#dae8fc;strokeColor=#6c8ebf;" parent="e9giC2nNCOoiWFTBTvgp-1" vertex="1">
                    <mxGeometry x="82" y="183" width="140" height="70" as="geometry"/>
                </mxCell>
                <mxCell id="csxftrDRh9M-hvTYitCq-109" style="edgeStyle=none;rounded=1;html=1;labelBackgroundColor=default;fontFamily=Helvetica;fontSize=11;fontColor=default;endArrow=none;endFill=0;strokeColor=default;elbow=vertical;" parent="e9giC2nNCOoiWFTBTvgp-1" source="csxftrDRh9M-hvTYitCq-102" target="csxftrDRh9M-hvTYitCq-101" edge="1">
                    <mxGeometry relative="1" as="geometry"/>
                </mxCell>
                <mxCell id="csxftrDRh9M-hvTYitCq-102" value="owner" style="shape=umlActor;verticalLabelPosition=bottom;verticalAlign=top;html=1;" parent="e9giC2nNCOoiWFTBTvgp-1" vertex="1">
                    <mxGeometry x="-27" y="188" width="30" height="60" as="geometry"/>
                </mxCell>
            </root>
        </mxGraphModel>
    </diagram>
</mxfile>